<svg height="2174" width="720" xmlns="http://www.w3.org/2000/svg">
<rect height="2174" fill="#555" width="720"></rect>
<text fill="#7f7" font-family="Courier New" font-size="12" xml:space="preserve">
<tspan x="10" y="26">30 megabytes installed</tspan>
<tspan x="10" y="42"></tspan>
<tspan x="10" y="58">node_modules</tspan>
<tspan x="10" y="74">└─┬ app.js@0.0.21 </tspan>
<tspan x="10" y="90">  ├─┬ async@2.3.0 </tspan>
<tspan x="10" y="106">  │ └── lodash@4.17.4 </tspan>
<tspan x="10" y="122">  ├── cssmin@0.4.3 </tspan>
<tspan x="10" y="138">  ├── dandy@0.0.5 </tspan>
<tspan x="10" y="154">  ├─┬ diskcache@0.0.17 </tspan>
<tspan x="10" y="170">  │ └─┬ rimraf@2.6.1 </tspan>
<tspan x="10" y="186">  │   └─┬ glob@7.1.1 </tspan>
<tspan x="10" y="202">  │     ├── fs.realpath@1.0.0 </tspan>
<tspan x="10" y="218">  │     ├── inflight@1.0.6 </tspan>
<tspan x="10" y="234">  │     ├─┬ minimatch@3.0.3 </tspan>
<tspan x="10" y="250">  │     │ └─┬ brace-expansion@1.1.7 </tspan>
<tspan x="10" y="266">  │     │   ├── balanced-match@0.4.2 </tspan>
<tspan x="10" y="282">  │     │   └── concat-map@0.0.1 </tspan>
<tspan x="10" y="298">  │     └── path-is-absolute@1.0.1 </tspan>
<tspan x="10" y="314">  ├─┬ express@2.5.9 </tspan>
<tspan x="10" y="330">  │ ├─┬ connect@1.9.2 </tspan>
<tspan x="10" y="346">  │ │ └── formidable@1.0.17 </tspan>
<tspan x="10" y="362">  │ ├── mime@1.2.4 </tspan>
<tspan x="10" y="378">  │ ├── mkdirp@0.3.0 </tspan>
<tspan x="10" y="394">  │ └── qs@0.4.2 </tspan>
<tspan x="10" y="410">  ├─┬ express-logger@0.0.3 </tspan>
<tspan x="10" y="426">  │ └── datetime@0.0.3 </tspan>
<tspan x="10" y="442">  ├── express-rewrite@0.0.4 </tspan>
<tspan x="10" y="458">  ├─┬ express-store@0.0.4 </tspan>
<tspan x="10" y="474">  │ └── buffers@0.1.1 </tspan>
<tspan x="10" y="490">  ├─┬ hascan@0.0.10 </tspan>
<tspan x="10" y="506">  │ └─┬ ua-parser@0.3.5 </tspan>
<tspan x="10" y="522">  │   └── yamlparser@0.0.2 </tspan>
<tspan x="10" y="538">  ├─┬ jsdom@0.10.5 </tspan>
<tspan x="10" y="554">  │ ├─┬ contextify@0.1.15 </tspan>
<tspan x="10" y="570">  │ │ ├── bindings@1.2.1 </tspan>
<tspan x="10" y="586">  │ │ └── nan@2.6.2 </tspan>
<tspan x="10" y="602">  │ ├── cssom@0.3.2 </tspan>
<tspan x="10" y="618">  │ ├── cssstyle@0.2.37 </tspan>
<tspan x="10" y="634">  │ ├─┬ htmlparser2@3.9.2 </tspan>
<tspan x="10" y="650">  │ │ ├── domelementtype@1.3.0 </tspan>
<tspan x="10" y="666">  │ │ ├── domhandler@2.3.0 </tspan>
<tspan x="10" y="682">  │ │ ├─┬ domutils@1.5.1 </tspan>
<tspan x="10" y="698">  │ │ │ └─┬ dom-serializer@0.1.0 </tspan>
<tspan x="10" y="714">  │ │ │   └── domelementtype@1.1.3 </tspan>
<tspan x="10" y="730">  │ │ ├── entities@1.1.1 </tspan>
<tspan x="10" y="746">  │ │ ├── inherits@2.0.3 </tspan>
<tspan x="10" y="762">  │ │ └─┬ readable-stream@2.2.9 </tspan>
<tspan x="10" y="778">  │ │   ├── buffer-shims@1.0.0 </tspan>
<tspan x="10" y="794">  │ │   ├── core-util-is@1.0.2 </tspan>
<tspan x="10" y="810">  │ │   ├── isarray@1.0.0 </tspan>
<tspan x="10" y="826">  │ │   ├── process-nextick-args@1.0.7 </tspan>
<tspan x="10" y="842">  │ │   ├── string_decoder@1.0.0 </tspan>
<tspan x="10" y="858">  │ │   └── util-deprecate@1.0.2 </tspan>
<tspan x="10" y="874">  │ ├── nwmatcher@1.3.9 </tspan>
<tspan x="10" y="890">  │ ├─┬ request@2.81.0 </tspan>
<tspan x="10" y="906">  │ │ ├── aws-sign2@0.6.0 </tspan>
<tspan x="10" y="922">  │ │ ├── aws4@1.6.0 </tspan>
<tspan x="10" y="938">  │ │ ├── caseless@0.12.0 </tspan>
<tspan x="10" y="954">  │ │ ├─┬ combined-stream@1.0.5 </tspan>
<tspan x="10" y="970">  │ │ │ └── delayed-stream@1.0.0 </tspan>
<tspan x="10" y="986">  │ │ ├── extend@3.0.0 </tspan>
<tspan x="10" y="1002">  │ │ ├── forever-agent@0.6.1 </tspan>
<tspan x="10" y="1018">  │ │ ├─┬ form-data@2.1.4 </tspan>
<tspan x="10" y="1034">  │ │ │ └── asynckit@0.4.0 </tspan>
<tspan x="10" y="1050">  │ │ ├─┬ har-validator@4.2.1 </tspan>
<tspan x="10" y="1066">  │ │ │ ├─┬ ajv@4.11.7 </tspan>
<tspan x="10" y="1082">  │ │ │ │ ├── co@4.6.0 </tspan>
<tspan x="10" y="1098">  │ │ │ │ └─┬ json-stable-stringify@1.0.1 </tspan>
<tspan x="10" y="1114">  │ │ │ │   └── jsonify@0.0.0 </tspan>
<tspan x="10" y="1130">  │ │ │ └── har-schema@1.0.5 </tspan>
<tspan x="10" y="1146">  │ │ ├─┬ hawk@3.1.3 </tspan>
<tspan x="10" y="1162">  │ │ │ ├── boom@2.10.1 </tspan>
<tspan x="10" y="1178">  │ │ │ ├── cryptiles@2.0.5 </tspan>
<tspan x="10" y="1194">  │ │ │ ├── hoek@2.16.3 </tspan>
<tspan x="10" y="1210">  │ │ │ └── sntp@1.0.9 </tspan>
<tspan x="10" y="1226">  │ │ ├─┬ http-signature@1.1.1 </tspan>
<tspan x="10" y="1242">  │ │ │ ├── assert-plus@0.2.0 </tspan>
<tspan x="10" y="1258">  │ │ │ ├─┬ jsprim@1.4.0 </tspan>
<tspan x="10" y="1274">  │ │ │ │ ├── assert-plus@1.0.0 </tspan>
<tspan x="10" y="1290">  │ │ │ │ ├── extsprintf@1.0.2 </tspan>
<tspan x="10" y="1306">  │ │ │ │ ├── json-schema@0.2.3 </tspan>
<tspan x="10" y="1322">  │ │ │ │ └── verror@1.3.6 </tspan>
<tspan x="10" y="1338">  │ │ │ └─┬ sshpk@1.13.0 </tspan>
<tspan x="10" y="1354">  │ │ │   ├── asn1@0.2.3 </tspan>
<tspan x="10" y="1370">  │ │ │   ├── assert-plus@1.0.0 </tspan>
<tspan x="10" y="1386">  │ │ │   ├── bcrypt-pbkdf@1.0.1 </tspan>
<tspan x="10" y="1402">  │ │ │   ├─┬ dashdash@1.14.1 </tspan>
<tspan x="10" y="1418">  │ │ │   │ └── assert-plus@1.0.0 </tspan>
<tspan x="10" y="1434">  │ │ │   ├── ecc-jsbn@0.1.1 </tspan>
<tspan x="10" y="1450">  │ │ │   ├─┬ getpass@0.1.6 </tspan>
<tspan x="10" y="1466">  │ │ │   │ └── assert-plus@1.0.0 </tspan>
<tspan x="10" y="1482">  │ │ │   ├── jodid25519@1.0.2 </tspan>
<tspan x="10" y="1498">  │ │ │   ├── jsbn@0.1.1 </tspan>
<tspan x="10" y="1514">  │ │ │   └── tweetnacl@0.14.5 </tspan>
<tspan x="10" y="1530">  │ │ ├── is-typedarray@1.0.0 </tspan>
<tspan x="10" y="1546">  │ │ ├── isstream@0.1.2 </tspan>
<tspan x="10" y="1562">  │ │ ├── json-stringify-safe@5.0.1 </tspan>
<tspan x="10" y="1578">  │ │ ├─┬ mime-types@2.1.15 </tspan>
<tspan x="10" y="1594">  │ │ │ └── mime-db@1.27.0 </tspan>
<tspan x="10" y="1610">  │ │ ├── oauth-sign@0.8.2 </tspan>
<tspan x="10" y="1626">  │ │ ├── performance-now@0.2.0 </tspan>
<tspan x="10" y="1642">  │ │ ├── qs@6.4.0 </tspan>
<tspan x="10" y="1658">  │ │ ├── safe-buffer@5.0.1 </tspan>
<tspan x="10" y="1674">  │ │ ├── stringstream@0.0.5 </tspan>
<tspan x="10" y="1690">  │ │ ├─┬ tough-cookie@2.3.2 </tspan>
<tspan x="10" y="1706">  │ │ │ └── punycode@1.4.1 </tspan>
<tspan x="10" y="1722">  │ │ ├── tunnel-agent@0.6.0 </tspan>
<tspan x="10" y="1738">  │ │ └── uuid@3.0.1 </tspan>
<tspan x="10" y="1754">  │ └── xmlhttprequest@1.8.0 </tspan>
<tspan x="10" y="1770">  ├── mime@1.3.4 </tspan>
<tspan x="10" y="1786">  ├── mkdir@0.0.2 </tspan>
<tspan x="10" y="1802">  ├── ncp@2.0.0 </tspan>
<tspan x="10" y="1818">  ├─┬ optimist@0.6.1 </tspan>
<tspan x="10" y="1834">  │ ├── minimist@0.0.10 </tspan>
<tspan x="10" y="1850">  │ └── wordwrap@0.0.3 </tspan>
<tspan x="10" y="1866">  ├─┬ transformjs@0.0.4 </tspan>
<tspan x="10" y="1882">  │ └─┬ uglify-js@2.4.12 </tspan>
<tspan x="10" y="1898">  │   ├── async@0.2.10 </tspan>
<tspan x="10" y="1914">  │   ├── optimist@0.3.7 </tspan>
<tspan x="10" y="1930">  │   ├─┬ source-map@0.1.43 </tspan>
<tspan x="10" y="1946">  │   │ └── amdefine@1.0.1 </tspan>
<tspan x="10" y="1962">  │   └── uglify-to-browserify@1.0.2 </tspan>
<tspan x="10" y="1978">  ├── underscore@1.8.3 </tspan>
<tspan x="10" y="1994">  └─┬ vows@0.8.1 </tspan>
<tspan x="10" y="2010">    ├── diff@1.0.8 </tspan>
<tspan x="10" y="2026">    ├── eyes@0.1.8 </tspan>
<tspan x="10" y="2042">    └─┬ glob@4.0.6 </tspan>
<tspan x="10" y="2058">      ├─┬ graceful-fs@3.0.11 </tspan>
<tspan x="10" y="2074">      │ └── natives@1.1.0 </tspan>
<tspan x="10" y="2090">      ├─┬ minimatch@1.0.0 </tspan>
<tspan x="10" y="2106">      │ ├── lru-cache@2.7.3 </tspan>
<tspan x="10" y="2122">      │ └── sigmund@1.0.1 </tspan>
<tspan x="10" y="2138">      └─┬ once@1.4.0 </tspan>
<tspan x="10" y="2154">        └── wrappy@1.0.2</tspan>
</text>
</svg>
